<?xml version="1.0" standalone="no"?>
<!DOCTYPE svg PUBLIC "-//W3C//DTD SVG 20010904//EN"
 "http://www.w3.org/TR/2001/REC-SVG-20010904/DTD/svg10.dtd">
<svg version="1.0" xmlns="http://www.w3.org/2000/svg"
 width="600.000000pt" height="600.000000pt" viewBox="0 0 600.000000 600.000000"
 preserveAspectRatio="xMidYMid meet">
<metadata>
Created by potrace 1.11, written by Peter Selinger 2001-2013
</metadata>
<g transform="translate(0.000000,600.000000) scale(0.100000,-0.100000)"
fill="#000000" stroke="none">
<path d="M0 3000 l0 -3000 3000 0 3000 0 0 3000 0 3000 -3000 0 -3000 0 0
-3000z m1058 1227 c17 -10 44 -36 60 -59 l27 -42 3 -883 c3 -983 4 -964 -64
-1103 -48 -97 -150 -200 -249 -251 -110 -57 -181 -69 -423 -69 -196 0 -210 1
-230 20 -29 27 -29 83 -2 110 19 19 33 20 220 20 215 0 276 8 359 49 65 31
157 121 188 182 54 107 53 96 53 1019 0 652 -3 859 -12 868 -9 9 -84 12 -274
12 l-263 0 -20 26 c-28 35 -26 69 4 100 l25 25 283 -3 c248 -3 286 -5 315 -21z
m1714 -10 c159 -42 278 -109 313 -178 22 -41 37 -266 26 -359 -9 -69 -12 -78
-48 -109 -50 -44 -159 -96 -253 -120 -219 -56 -596 -55 -804 1 l-80 21 -67
-71 c-37 -40 -88 -102 -112 -139 -76 -114 -77 -124 -77 -558 0 -216 4 -406 10
-436 28 -151 131 -261 293 -313 116 -38 259 -56 440 -56 225 0 423 32 531 87
70 35 142 112 179 191 l32 67 0 455 c0 451 0 455 -23 512 -13 31 -41 79 -62
106 -44 54 -51 92 -24 130 21 31 85 31 115 0 39 -41 97 -137 120 -201 23 -61
23 -72 27 -513 3 -500 1 -527 -59 -647 -44 -86 -157 -198 -240 -236 -242 -112
-722 -135 -1043 -50 -214 57 -349 176 -417 369 -23 63 -24 75 -27 487 -2 268
0 442 7 480 23 123 116 269 259 406 79 74 83 77 131 77 27 0 68 -7 92 -16 69
-24 241 -44 394 -44 227 0 366 24 485 83 79 39 83 50 74 200 -8 128 -15 140
-106 184 -94 46 -193 65 -364 71 -216 6 -421 -26 -538 -85 -45 -23 -48 -27
-32 -38 26 -20 163 -54 263 -66 111 -14 358 -6 481 16 85 15 95 15 117 1 14
-9 28 -28 31 -41 8 -31 -12 -83 -35 -89 -148 -46 -562 -57 -731 -19 -234 52
-327 122 -300 224 23 85 115 151 278 199 130 38 242 49 452 46 170 -3 207 -7
292 -29z m1769 4 c17 -13 23 -29 23 -56 0 -27 -6 -43 -23 -56 -20 -17 -42 -19
-175 -19 -160 0 -219 -10 -301 -51 -100 -50 -175 -140 -214 -257 -21 -60 -21
-79 -21 -987 l0 -926 -25 -24 c-13 -14 -34 -25 -45 -25 -24 0 -61 18 -72 34
-4 6 -8 430 -8 941 0 785 3 940 15 993 49 209 233 392 439 437 35 8 129 14
222 14 144 1 164 -1 185 -18z m1196 -3 c30 -28 31 -80 2 -107 -19 -17 -39 -19
-197 -23 -174 -3 -178 -4 -242 -34 -178 -84 -297 -282 -270 -448 19 -115 74
-189 285 -381 253 -231 344 -351 403 -535 44 -134 55 -316 27 -425 -51 -195
-196 -348 -395 -419 -46 -16 -90 -20 -272 -24 l-217 -4 -25 26 c-33 32 -33 70
-1 101 24 25 26 25 207 25 149 0 196 4 251 19 122 34 220 118 280 241 31 63
32 69 32 195 0 111 -4 140 -24 200 -55 161 -128 265 -292 416 -317 290 -385
381 -410 554 -23 163 44 341 180 475 88 86 183 136 316 164 11 2 92 4 179 5
151 1 161 0 183 -21z"/>
</g>
</svg>
